<svg t="1622517500781" class="icon" viewBox="0 0 1024 1024" version="1.1" xmlns="http://www.w3.org/2000/svg" p-id="9755" width="16" height="16"><path d="M638.272 128.064l82.048 82.112L930.56 0l91.52 91.456-210.176 210.112 81.856 82.048c0 35.328-28.352 63.872-63.808 63.872L638.272 447.488c-35.2 0-63.808-28.544-63.808-63.872L574.464 192C574.464 156.736 603.072 128.064 638.272 128.064L638.272 128.064 638.272 128.064zM128.064 638.336c0-35.136 28.672-63.808 63.872-63.808l191.68 0c35.328 0 63.872 28.672 63.872 63.808l0 191.68c0 35.392-28.544 63.808-63.872 63.808l-82.048-81.792-210.176 210.112L0 930.752l210.176-210.304L128.064 638.336 128.064 638.336 128.064 638.336zM638.272 574.528l191.68 0c35.456 0 63.808 28.672 63.808 63.808l-81.856 82.112 210.176 210.304-91.52 91.392-210.24-210.112-82.048 81.792c-35.2 0-63.808-28.416-63.808-63.808L574.464 638.336C574.464 603.2 603.072 574.528 638.272 574.528L638.272 574.528 638.272 574.528zM91.392 0l210.176 210.24 82.048-82.112c35.328 0 63.872 28.608 63.872 63.872l0 191.68c0 35.328-28.544 63.872-63.872 63.872L191.936 447.552c-35.2 0-63.872-28.544-63.872-63.872l82.112-82.048L0 91.456 91.392 0 91.392 0 91.392 0zM91.392 0" p-id="9756"></path></svg>