<svg t="1571975307387" class="icon" viewBox="0 0 1024 1024" version="1.1" xmlns="http://www.w3.org/2000/svg" p-id="4246" width="64" height="64"><path d="M941.714286 617.179429h-54.198857c-8.777143 31.890286-21.430857 62.171429-37.595429 90.258285l50.102857 50.029715c32.109714 32.109714 32.109714 84.114286 0 116.150857l-29.037714 29.037714a82.139429 82.139429 0 0 1-116.150857 0l-50.468572-50.468571a386.486857 386.486857 0 0 1-89.819428 37.010285v52.662857c0 45.348571-36.717714 82.066286-82.066286 82.066286h-41.033143c-45.348571 0-82.139429-36.790857-82.139428-82.139428v-52.589715a387.876571 387.876571 0 0 1-89.892572-37.010285l-50.468571 50.468571a82.066286 82.066286 0 0 1-116.077715 0l-29.037714-29.037714a82.139429 82.139429 0 0 1 0-116.150857l50.102857-50.029715a388.388571 388.388571 0 0 1-37.595428-90.258285h-54.125715C36.790857 617.179429 0 580.461714 0 535.113143v-41.106286c0-45.348571 36.717714-82.066286 82.066286-82.066286h53.540571c8.484571-31.597714 20.626286-61.659429 36.352-89.6l-48.201143-48.128a82.139429 82.139429 0 0 1 0-116.150857l29.037715-29.037714a82.066286 82.066286 0 0 1 116.150857 0l47.177143 47.250286a387.657143 387.657143 0 0 1 93.110857-38.912v-55.149715C409.307429 36.864 446.098286 0 491.446857 0h40.96c45.348571 0 82.139429 36.790857 82.139429 82.139429v55.149714a386.194286 386.194286 0 0 1 93.110857 38.912l47.177143-47.250286a82.139429 82.139429 0 0 1 116.150857 0l29.037714 29.037714c32.109714 32.109714 32.109714 84.114286 0 116.150858l-48.201143 48.128c15.725714 27.940571 27.794286 58.002286 36.352 89.6h53.540572c45.348571 0 82.139429 36.717714 82.139428 82.066285v41.106286c0 45.348571-36.790857 82.066286-82.139428 82.066286zM512 290.011429a225.792 225.792 0 1 0 0 451.657142 225.792 225.792 0 0 0 0-451.657142zM512 615.862857a102.619429 102.619429 0 1 1 0-205.238857 102.619429 102.619429 0 0 1 0 205.238857z" p-id="4247"></path></svg>
