<svg t="1629272347517" class="icon" viewBox="0 0 1024 1024" version="1.1" xmlns="http://www.w3.org/2000/svg" p-id="2529" width="16" height="16"><path d="M825.68 153.508H638.368C619.547 101.527 570.255 63.885 512 63.885S404.452 101.527 385.632 153.508H198.32c-49.293 0-89.623 40.33-89.623 89.623v627.361c0 49.293 40.33 89.623 89.623 89.623h627.36c49.293 0 89.623-40.33 89.623-89.623V243.131c0-49.292-40.33-89.623-89.623-89.623z m-313.68 0c24.646 0 44.811 20.165 44.811 44.811S536.646 243.131 512 243.131s-44.811-20.165-44.811-44.811S487.354 153.508 512 153.508z m-89.623 627.361L243.131 601.623l63.184-63.184 116.062 115.614 295.308-295.308 63.184 63.632-358.492 358.492z" p-id="2530"></path></svg>