<svg t="1629272304644" class="icon" viewBox="0 0 1024 1024" version="1.1" xmlns="http://www.w3.org/2000/svg" p-id="2209" width="16" height="16"><path d="M958.9 585.8c0-22.7-18.3-41-41-41H589.1c-22.7 0-41 18.3-41 41v328.8c0 22.7 18.3 41 41 41h328.8c22.7 0 41-18.3 41-41V585.8z m-479.1 0c0-22.7-18.3-41-41-41H110c-22.7 0-41 18.5-41 41v328.8c0 22.7 18.3 41 41 41h328.8c22.7 0 41-18.3 41-41V585.8z m0-479.2c0-22.7-18.3-41-41-41H110c-22.7 0-41 18.3-41 41v328.8c0 22.7 18.3 41 41 41h328.8c22.7 0 41-18.3 41-41V106.6z m280.1-33.3c-10.3-10.3-27.2-10.3-37.5 0L531.1 264.7c-10.3 10.3-10.3 27.2 0 37.5l191.3 191.3c10.3 10.3 27.2 10.3 37.5 0l191.3-191.3c10.3-10.3 10.3-27.2 0-37.5L759.9 73.3z m0 0" p-id="2210"></path></svg>