<svg t="1622517610839" class="icon" viewBox="0 0 1024 1024" version="1.1" xmlns="http://www.w3.org/2000/svg" p-id="12877" width="16" height="16"><path d="M781.9264 691.1232l236.928 236.9216-90.816 90.8032-236.9152-236.9216c-72.032 53.3568-161.184 84.9088-257.7088 84.9088C194.048 866.8352 0 672.7872 0 433.408 0 194.048 194.048 0 433.4144 0c239.3728 0 433.4208 194.048 433.4208 433.4144 0 96.5248-31.552 185.6768-84.9088 257.7088z m-348.512 47.2896c168.448 0 304.9984-136.5504 304.9984-304.9984S601.8624 128.4224 433.4144 128.4224 128.4224 264.9728 128.4224 433.408c0 168.448 136.5504 304.9984 304.992 304.9984z" p-id="12878"></path></svg>