<svg t="1623721331593" class="icon" viewBox="0 0 1024 1024" version="1.1" xmlns="http://www.w3.org/2000/svg" p-id="7633" width="16" height="16"><path d="M920.463 444.9l-0.138-0.032-16.609-3.8-1.45-0.439c-47.211-14.281-87.326-45.521-112.538-89.067-25.243-43.822-32.297-94.819-20.685-142.938l0.438-1.815 4.999-15.004 0.029-0.212c0.053-0.431 0.08-0.98 0.063-1.62-0.04-1.632-0.341-3.524-0.896-5.428-0.556-1.904-1.32-3.661-2.164-5.058-0.479-0.793-0.876-1.304-1.068-1.512-0.27-0.213-0.62-0.484-1.052-0.812-1.894-1.44-4.414-3.262-7.605-5.46-9.708-6.686-22.649-14.821-39.183-24.365-16.599-9.504-30.148-16.644-40.806-21.739-3.517-1.682-6.373-2.973-8.587-3.915a84.987 84.987 0 0 0-1.22-0.51l-0.177-0.032a10.37 10.37 0 0 0-1.52-0.134c-1.568-0.037-3.415 0.17-5.298 0.628-1.903 0.463-3.683 1.144-5.125 1.928-0.994 0.541-1.599 0.998-1.707 1.113l-11.491 12.275-0.97 0.918c-35.84 33.906-83.166 53.06-133.615 53.06-50.536 0-98.273-19.408-134.09-53.538l-0.929-0.884-11.083-11.868-0.097-0.105c-2.026-2.182-10.684-4.312-13.607-3.406-0.357 0.142-0.842 0.34-1.457 0.6-2.223 0.94-5.089 2.227-8.614 3.905-10.674 5.078-24.209 12.194-40.754 21.665-16.492 9.6-29.368 17.764-39 24.459-3.163 2.199-5.655 4.018-7.522 5.452a63.609 63.609 0 0 0-1.219 0.954l-0.126 0.106c0.04-0.034-0.014 0.02-0.139 0.17-0.258 0.308-0.557 0.725-0.871 1.241-0.812 1.332-1.55 3.021-2.091 4.866-0.546 1.862-0.843 3.726-0.883 5.349-0.028 1.116 0.064 1.857 0.123 2.052l4.77 15.72 0.317 1.341c11.385 48.205 4.416 98.895-20.738 142.546-25.209 43.782-65.804 75.28-113.35 89.333l-1.39 0.41-1.414 0.319-14.493 3.264c-2.887 0.656-9.097 7.094-9.81 10.131-0.053 0.357-0.12 0.84-0.198 1.454-0.297 2.353-0.613 5.437-0.918 9.291-0.932 11.744-1.505 27.03-1.505 46.158 0 19.12 0.573 34.402 1.505 46.143 0.305 3.853 0.62 6.937 0.918 9.29 0.082 0.645 0.151 1.146 0.205 1.506 0.679 3.036 6.796 9.404 9.69 10.054l0.13 0.029 15.642 3.614 1.275 0.377c47.657 14.093 88.39 45.656 113.55 89.546 25.224 43.817 32.268 94.79 20.668 142.894l-0.276 1.146-4.57 15.3-0.04 0.132c0.012-0.04-0.008 0.056-0.035 0.275-0.054 0.431-0.08 0.98-0.064 1.622 0.04 1.632 0.342 3.525 0.897 5.43 0.556 1.904 1.319 3.66 2.162 5.056 0.478 0.79 0.873 1.298 1.062 1.503 0.272 0.215 0.623 0.487 1.057 0.817 1.898 1.442 4.42 3.265 7.612 5.464 9.725 6.7 22.686 14.85 39.234 24.408 16.569 9.563 30.07 16.694 40.667 21.734 3.472 1.652 6.282 2.91 8.447 3.817 0.583 0.245 1.039 0.43 1.369 0.56 0.024 0.003 0.103 0.02 0.235 0.043 0.402 0.071 0.92 0.121 1.531 0.136 1.574 0.037 3.424-0.17 5.31-0.63 1.902-0.462 3.681-1.143 5.122-1.927 0.97-0.527 1.568-0.974 1.746-1.156l10.878-11.66 0.995-0.942c36.046-34.116 83.559-53.428 134.166-53.428 50.63 0 98.385 19.513 134.28 53.728l0.929 0.886 10.907 11.683 0.099 0.107c2.02 2.178 10.668 4.304 13.619 3.39 0.356-0.141 0.839-0.339 1.451-0.597 2.222-0.937 5.085-2.224 8.608-3.9 10.687-5.082 24.241-12.21 40.813-21.704 16.5-9.52 29.373-17.631 38.992-24.294 3.15-2.182 5.628-3.986 7.481-5.408a61.231 61.231 0 0 0 1.2-0.94l0.127-0.106c-0.056 0.047-0.013 0.004 0.104-0.136 0.256-0.306 0.554-0.724 0.87-1.243 0.818-1.348 1.566-3.065 2.113-4.942 0.554-1.898 0.856-3.799 0.897-5.454 0.028-1.136-0.065-1.887-0.13-2.104l-0.033-0.105-4.746-15.818-0.297-1.252c-11.41-48.075-4.416-98.805 20.733-142.242 25.221-43.775 65.994-75.444 113.51-89.51l1.284-0.38 15.529-3.585 0.174-0.04c2.864-0.65 9.072-7.086 9.783-10.111 0.053-0.357 0.12-0.84 0.197-1.455 0.297-2.353 0.612-5.437 0.917-9.291 0.928-11.725 1.501-26.981 1.501-46.068-0.075-18.724-0.67-33.802-1.594-45.511-0.327-4.144-0.665-7.464-0.985-10.001a75.83 75.83 0 0 0-0.222-1.641c-0.71-3.022-6.91-9.488-9.736-10.125zM301.325 147.374l0.263-0.152a919.447 919.447 0 0 0-0.263 0.152z m715.51 292.188v0.006c0.702 3.893 1.535 10.502 2.299 20.174 1.103 13.977 1.783 31.27 1.866 52.175v0.173c0 21.385-0.658 38.98-1.776 53.1-0.726 9.166-1.521 15.466-2.186 19.164-6.741 37.758-39.578 72.042-76.88 80.546l-12.738 2.942c-25.59 7.891-47.443 25.063-61.112 48.786-13.579 23.454-17.48 50.66-11.58 76.76l3.962 13.207c11.059 36.626-2.127 81.928-31.366 106.591-2.97 2.527-7.996 6.372-15.43 11.521-11.679 8.09-26.614 17.5-45.184 28.212l-0.111 0.064c-18.492 10.595-34.042 18.773-46.819 24.85-4.693 2.232-8.753 4.056-12.201 5.51-2.367 1-4.163 1.706-5.389 2.153-36.096 13.165-82.24 1.975-108.353-26.124l-9.04-9.684c-19.587-18.268-45.319-28.621-72.709-28.621-27.45 0-53.018 10.221-72.76 28.484l-9.019 9.668-0.1 0.106c-26.234 27.938-72.053 39.106-108.096 26.04-3.6-1.297-9.415-3.738-17.622-7.642-12.764-6.071-28.322-14.289-46.87-24.993-18.528-10.702-33.458-20.09-45.155-28.149-7.59-5.228-12.661-9.083-15.578-11.55l-0.084-0.07c-29.15-24.781-42.39-70.066-31.315-106.57l3.794-12.704c6.008-26.06 2.073-53.514-11.648-77.335l-0.051-0.09c-13.536-23.625-35.285-40.677-61.007-48.595l-12.704-2.935c-37.462-8.49-70.17-42.754-76.891-80.488-0.676-3.752-1.474-10.055-2.202-19.224C3.66 550.897 3 533.3 3 511.915c0-21.391 0.66-38.993 1.78-53.12 0.728-9.17 1.526-15.474 2.187-19.146 6.734-37.783 39.615-72.085 77.038-80.597l13.052-2.94c25.558-7.893 47.178-24.88 60.767-48.481 13.621-23.638 17.526-50.878 11.632-77.162l-3.945-13c-11.091-36.648 2.097-81.808 31.359-106.48 2.943-2.503 7.945-6.335 15.36-11.489 11.652-8.1 26.56-17.55 45.1-28.338l0.132-0.077 0.132-0.075c18.491-10.59 34.037-18.764 46.808-24.84 4.69-2.231 8.746-4.055 12.19-5.51 2.364-0.997 4.156-1.704 5.402-2.158 36.091-13.164 82.233-1.97 108.346 26.116l9.217 9.87c19.477 18.154 45.177 28.443 72.531 28.443 27.351 0 52.733-10.106 72.244-28.151l9.642-10.3c26.265-27.955 72.15-39.122 108.197-25.98l0.145 0.053c1.227 0.452 3 1.157 5.34 2.153 3.413 1.452 7.438 3.271 12.097 5.499 12.69 6.066 28.18 14.23 46.647 24.805l0.128 0.074c18.539 10.7 33.475 20.088 45.176 28.147 7.593 5.23 12.668 9.088 15.588 11.559l0.084 0.071c29.184 24.824 42.417 70.19 31.258 106.717l-0.161 0.528-4.273 12.824c-5.81 25.872-1.83 53.079 11.733 76.622 13.608 23.504 34.99 40.375 60.485 48.436l13.475 3.083c37.41 8.47 70.156 42.846 76.941 80.492zM512.5 716C400.168 716 309 624.855 309 512.428 309 400.073 400.087 309 512.5 309 624.837 309 716 400.149 716 512.66 715.797 624.966 624.746 716 512.5 716z m0-88c63.675 0 115.385-51.7 115.5-115.42C628 448.753 576.239 397 512.5 397 448.685 397 397 448.677 397 512.428 397 576.249 448.764 628 512.5 628z" p-id="7634"></path></svg>